<svg width="309" height="300" viewBox="0 0 309 300" fill="none" xmlns="http://www.w3.org/2000/svg">
<rect opacity="0.5" width="309" height="300" fill="black"/>
<path d="M155 176.063C148.038 176.063 141.361 173.307 136.438 168.4C131.516 163.494 128.75 156.839 128.75 149.9C128.75 142.962 131.516 136.307 136.438 131.4C141.361 126.494 148.038 123.738 155 123.738C161.962 123.738 168.639 126.494 173.562 131.4C178.484 136.307 181.25 142.962 181.25 149.9C181.25 156.839 178.484 163.494 173.562 168.4C168.639 173.307 161.962 176.063 155 176.063ZM155 179.801C162.956 179.801 170.587 176.65 176.213 171.043C181.839 165.436 185 157.83 185 149.9C185 141.97 181.839 134.365 176.213 128.758C170.587 123.15 162.956 120 155 120C147.044 120 139.413 123.15 133.787 128.758C128.161 134.365 125 141.97 125 149.9C125 157.83 128.161 165.436 133.787 171.043C139.413 176.65 147.044 179.801 155 179.801Z" fill="#FFD369"/>
<path d="M148.516 138.893C148.823 138.736 149.167 138.666 149.511 138.691C149.855 138.716 150.186 138.835 150.466 139.036L163.591 148.379C163.834 148.552 164.032 148.78 164.169 149.045C164.306 149.31 164.377 149.603 164.377 149.901C164.377 150.198 164.306 150.491 164.169 150.756C164.032 151.021 163.834 151.249 163.591 151.422L150.466 160.766C150.186 160.966 149.856 161.085 149.512 161.11C149.168 161.135 148.824 161.065 148.517 160.908C148.211 160.75 147.953 160.512 147.774 160.219C147.595 159.925 147.5 159.588 147.5 159.244V140.557C147.5 140.213 147.594 139.876 147.774 139.583C147.953 139.289 148.21 139.051 148.516 138.893Z" fill="#FFD369"/>
</svg>
