<svg width="345" height="213" viewBox="0 0 345 213" fill="none" xmlns="http://www.w3.org/2000/svg">
<rect opacity="0.5" width="345" height="213" fill="black"/>
<path d="M173 133.063C166.038 133.063 159.361 130.307 154.438 125.4C149.516 120.494 146.75 113.839 146.75 106.9C146.75 99.9615 149.516 93.3069 154.438 88.4004C159.361 83.494 166.038 80.7375 173 80.7375C179.962 80.7375 186.639 83.494 191.562 88.4004C196.484 93.3069 199.25 99.9615 199.25 106.9C199.25 113.839 196.484 120.494 191.562 125.4C186.639 130.307 179.962 133.063 173 133.063ZM173 136.801C180.956 136.801 188.587 133.65 194.213 128.043C199.839 122.436 203 114.83 203 106.9C203 98.9703 199.839 91.365 194.213 85.7576C188.587 80.1502 180.956 77 173 77C165.044 77 157.413 80.1502 151.787 85.7576C146.161 91.365 143 98.9703 143 106.9C143 114.83 146.161 122.436 151.787 128.043C157.413 133.65 165.044 136.801 173 136.801Z" fill="#FFD369"/>
<path d="M166.516 95.8935C166.823 95.7361 167.167 95.6661 167.511 95.6911C167.855 95.7162 168.186 95.8354 168.466 96.0355L181.591 105.379C181.834 105.552 182.032 105.78 182.169 106.045C182.306 106.31 182.377 106.603 182.377 106.901C182.377 107.198 182.306 107.491 182.169 107.756C182.032 108.021 181.834 108.249 181.591 108.422L168.466 117.766C168.186 117.966 167.856 118.085 167.512 118.11C167.168 118.135 166.824 118.065 166.517 117.908C166.211 117.75 165.953 117.512 165.774 117.219C165.595 116.925 165.5 116.588 165.5 116.244V97.5567C165.5 97.2132 165.594 96.8762 165.774 96.5827C165.953 96.2893 166.21 96.0508 166.516 95.8935Z" fill="#FFD369"/>
</svg>
