<svg width="648" height="400" viewBox="0 0 648 400" fill="none" xmlns="http://www.w3.org/2000/svg">
<rect opacity="0.5" x="0.000244141" width="648" height="400" fill="black"/>
<path d="M324 226.063C317.038 226.063 310.361 223.307 305.438 218.4C300.516 213.494 297.75 206.839 297.75 199.9C297.75 192.962 300.516 186.307 305.438 181.4C310.361 176.494 317.038 173.738 324 173.738C330.962 173.738 337.639 176.494 342.562 181.4C347.484 186.307 350.25 192.962 350.25 199.9C350.25 206.839 347.484 213.494 342.562 218.4C337.639 223.307 330.962 226.063 324 226.063ZM324 229.801C331.956 229.801 339.587 226.65 345.213 221.043C350.839 215.436 354 207.83 354 199.9C354 191.97 350.839 184.365 345.213 178.758C339.587 173.15 331.956 170 324 170C316.044 170 308.413 173.15 302.787 178.758C297.161 184.365 294 191.97 294 199.9C294 207.83 297.161 215.436 302.787 221.043C308.413 226.65 316.044 229.801 324 229.801Z" fill="#FFD369"/>
<path d="M317.516 188.893C317.823 188.736 318.167 188.666 318.511 188.691C318.855 188.716 319.186 188.835 319.466 189.036L332.591 198.379C332.834 198.552 333.032 198.78 333.169 199.045C333.306 199.31 333.377 199.603 333.377 199.901C333.377 200.198 333.306 200.491 333.169 200.756C333.032 201.021 332.834 201.249 332.591 201.422L319.466 210.766C319.186 210.966 318.856 211.085 318.512 211.11C318.168 211.135 317.824 211.065 317.517 210.908C317.211 210.75 316.953 210.512 316.774 210.219C316.595 209.925 316.5 209.588 316.5 209.244V190.557C316.5 190.213 316.594 189.876 316.774 189.583C316.953 189.289 317.21 189.051 317.516 188.893Z" fill="#FFD369"/>
</svg>
