<svg width="165" height="160" viewBox="0 0 165 160" fill="none" xmlns="http://www.w3.org/2000/svg">
<rect opacity="0.2" width="165" height="160" fill="black"/>
<path d="M83 98.2143C78.1266 98.2143 73.4529 96.2848 70.0069 92.8502C66.5609 89.4157 64.625 84.7575 64.625 79.9003C64.625 75.0432 66.5609 70.3849 70.0069 66.9504C73.4529 63.5159 78.1266 61.5864 83 61.5864C87.8734 61.5864 92.5471 63.5159 95.9931 66.9504C99.4391 70.3849 101.375 75.0432 101.375 79.9003C101.375 84.7575 99.4391 89.4157 95.9931 92.8502C92.5471 96.2848 87.8734 98.2143 83 98.2143ZM83 100.831C88.5695 100.831 93.911 98.6254 97.8492 94.7002C101.788 90.7751 104 85.4514 104 79.9003C104 74.3493 101.788 69.0256 97.8492 65.1004C93.911 61.1752 88.5695 58.9701 83 58.9701C77.4305 58.9701 72.089 61.1752 68.1508 65.1004C64.2125 69.0256 62 74.3493 62 79.9003C62 85.4514 64.2125 90.7751 68.1508 94.7002C72.089 98.6254 77.4305 100.831 83 100.831Z" fill="#FFD369"/>
<path d="M78.4614 72.1956C78.6761 72.0854 78.9171 72.0364 79.1579 72.0539C79.3987 72.0714 79.63 72.1549 79.8264 72.295L89.0139 78.8357C89.184 78.9567 89.3227 79.1164 89.4184 79.3016C89.5141 79.4869 89.564 79.6922 89.564 79.9005C89.564 80.1088 89.5141 80.3141 89.4184 80.4993C89.3227 80.6846 89.184 80.8443 89.0139 80.9653L79.8264 87.506C79.6301 87.646 79.3989 87.7294 79.1582 87.7469C78.9175 87.7645 78.6766 87.7155 78.462 87.6054C78.2474 87.4954 78.0674 87.3285 77.9418 87.1231C77.8162 86.9177 77.7498 86.6817 77.75 86.4412V73.3598C77.7497 73.1193 77.816 72.8834 77.9415 72.678C78.067 72.4726 78.2469 72.3057 78.4614 72.1956Z" fill="#FFD369"/>
</svg>
